<?xml version="1.0" encoding="utf-8"?>
<svg version="1.1" xmlns:xlink="http://www.w3.org/1999/xlink" width="10px" height="6px" xmlns="http://www.w3.org/2000/svg">
  <g transform="matrix(1 0 0 1 -175 -70 )">
    <path d="M 4.65568462171053 5.48330965909091  C 4.87047697368421 5.66676136363636  5.18888774671053 5.66340553977273  5.40044202302632 5.46205610795455  L 9.65635279605263 1.42276278409091  C 9.88841488486842 1.20239701704545  9.90352590460526 0.829900568181818  9.69197162828947 0.590518465909091  C 9.47933799342105 0.350017755681818  9.11991159539473 0.334357244318182  8.88892886513158 0.553604403409091  L 5.01619037828947 4.22935014204545  L 1.13265830592105 0.556960227272727  C 0.900596217105263 0.337713068181818  0.541169819078947 0.3544921875  0.329615542763158 0.594992897727273  C 0.118061266447368 0.835493607954545  0.134251644736842 1.20799005681818  0.366313733552631 1.42723721590909  L 4.62870065789474 5.45981889204545  C 4.63733552631579 5.46764914772727  4.64704975328947 5.47659801136364  4.65568462171053 5.48330965909091  Z " fill-rule="nonzero" fill="#000000" stroke="none" transform="matrix(1 0 0 1 175 70 )" />
  </g>
</svg>