<?xml version="1.0" encoding="utf-8"?>
<svg version="1.1" xmlns:xlink="http://www.w3.org/1999/xlink" width="83px" height="10px" preserveAspectRatio="xMinYMid meet" viewBox="1842 1571  83 8" xmlns="http://www.w3.org/2000/svg">
  <path d="M 1844 1575  L 1915 1575  A 5 5 0 0 1 1920 1580 L 1920 1597  A 5 5 0 0 0 1925 1602 L 1952 1602  " stroke-width="2" stroke="#0099cc" fill="none" />
  <path d="M 1845.5 1571.5  A 3.5 3.5 0 0 0 1842 1575 A 3.5 3.5 0 0 0 1845.5 1578.5 A 3.5 3.5 0 0 0 1849 1575 A 3.5 3.5 0 0 0 1845.5 1571.5 Z M 1951 1609.6  L 1958 1602  L 1951 1594.4  L 1951 1609.6  Z " fill-rule="nonzero" fill="#0099cc" stroke="none" />
</svg>