<?xml version="1.0" encoding="utf-8"?>
<svg version="1.1" xmlns:xlink="http://www.w3.org/1999/xlink" width="83px" height="141px" xmlns="http://www.w3.org/2000/svg">
  <defs>
    <mask fill="white" id="clip13">
      <path d="M 4.71428571428566 66.4761904761904  L 32.4636871508379 141  L 83 75.9999999999999  L 58.9999999999999 0.761904761904758  L 0.904761904761813 0.761904761904758  L 0.904761904761813 22.6666666666666  L 12.8095238095237 56.9523809523809  L 4.71428571428566 66.4761904761904  Z " fill-rule="evenodd" />
    </mask>
  </defs>
  <g transform="matrix(1 0 0 1 -4 -3 )">
    <path d="M 4.71428571428566 66.4761904761904  L 32.4636871508379 141  L 83 75.9999999999999  L 58.9999999999999 0.761904761904758  L 0.904761904761813 0.761904761904758  L 0.904761904761813 22.6666666666666  L 12.8095238095237 56.9523809523809  L 4.71428571428566 66.4761904761904  Z " fill-rule="nonzero" fill="#02a7f0" stroke="none" transform="matrix(1 0 0 1 4 3 )" />
    <path d="M 4.71428571428566 66.4761904761904  L 32.4636871508379 141  L 83 75.9999999999999  L 58.9999999999999 0.761904761904758  L 0.904761904761813 0.761904761904758  L 0.904761904761813 22.6666666666666  L 12.8095238095237 56.9523809523809  L 4.71428571428566 66.4761904761904  Z " stroke-width="6" stroke="#027db4" fill="none" transform="matrix(1 0 0 1 4 3 )" mask="url(#clip13)" />
  </g>
</svg>