<?xml version="1.0" encoding="utf-8"?>
<svg version="1.1" xmlns:xlink="http://www.w3.org/1999/xlink" width="57px" height="10px" preserveAspectRatio="xMinYMid meet" viewBox="1842 1641  57 8" xmlns="http://www.w3.org/2000/svg">
  <path d="M 1844 1645  L 1889 1645  A 5 5 0 0 0 1894 1640 L 1894 1571  A 5 5 0 0 1 1899 1566 L 1941 1566  " stroke-width="2" stroke="#0099cc" fill="none" />
  <path d="M 1845.5 1641.5  A 3.5 3.5 0 0 0 1842 1645 A 3.5 3.5 0 0 0 1845.5 1648.5 A 3.5 3.5 0 0 0 1849 1645 A 3.5 3.5 0 0 0 1845.5 1641.5 Z M 1940 1573.6  L 1947 1566  L 1940 1558.4  L 1940 1573.6  Z " fill-rule="nonzero" fill="#0099cc" stroke="none" />
</svg>