<?xml version="1.0" encoding="utf-8"?>
<svg version="1.1" xmlns:xlink="http://www.w3.org/1999/xlink" width="167px" height="54px" xmlns="http://www.w3.org/2000/svg">
  <defs>
    <mask fill="white" id="clip90">
      <path d="M 0 40.1739130434783  L 0 3.82608695652174  C 0 1.68347826086956  0.879999999999995 0  2 0  L 155 0  C 156.12 0  157 1.68347826086956  157 3.82608695652174  L 157 40.1739130434783  C 157 42.3165217391304  156.12 44  155 44  L 100.545454545455 44  L 2 44  C 0.879999999999995 44  0 42.3165217391304  0 40.1739130434783  Z " fill-rule="evenodd" />
    </mask>
    <filter x="954px" y="2120px" width="167px" height="54px" filterUnits="userSpaceOnUse" id="filter91">
      <feOffset dx="3" dy="3" in="SourceAlpha" result="shadowOffsetInner" />
      <feGaussianBlur stdDeviation="2.5" in="shadowOffsetInner" result="shadowGaussian" />
      <feComposite in2="shadowGaussian" operator="atop" in="SourceAlpha" result="shadowComposite" />
      <feColorMatrix type="matrix" values="0 0 0 0 0  0 0 0 0 0  0 0 0 0 0  0 0 0 0.349019607843137 0  " in="shadowComposite" />
    </filter>
    <g id="widget92">
      <path d="M 0 40.1739130434783  L 0 3.82608695652174  C 0 1.68347826086956  0.879999999999995 0  2 0  L 155 0  C 156.12 0  157 1.68347826086956  157 3.82608695652174  L 157 40.1739130434783  C 157 42.3165217391304  156.12 44  155 44  L 100.545454545455 44  L 2 44  C 0.879999999999995 44  0 42.3165217391304  0 40.1739130434783  Z " fill-rule="nonzero" fill="#ffffff" stroke="none" transform="matrix(1 0 0 1 956 2122 )" />
      <path d="M 0 40.1739130434783  L 0 3.82608695652174  C 0 1.68347826086956  0.879999999999995 0  2 0  L 155 0  C 156.12 0  157 1.68347826086956  157 3.82608695652174  L 157 40.1739130434783  C 157 42.3165217391304  156.12 44  155 44  L 100.545454545455 44  L 2 44  C 0.879999999999995 44  0 42.3165217391304  0 40.1739130434783  Z " stroke-width="2" stroke="#adb0c1" fill="none" transform="matrix(1 0 0 1 956 2122 )" mask="url(#clip90)" />
    </g>
  </defs>
  <g transform="matrix(1 0 0 1 -954 -2120 )">
    <use xlink:href="#widget92" filter="url(#filter91)" />
    <use xlink:href="#widget92" />
  </g>
</svg>