<?xml version="1.0" encoding="utf-8"?>
<svg version="1.1" xmlns:xlink="http://www.w3.org/1999/xlink" width="13px" height="19px" xmlns="http://www.w3.org/2000/svg">
  <g transform="matrix(1 0 0 1 -1307 -1584 )">
    <path d="M 10.8593394886364 17.0671472886029  C 9.69494850852273 18.1703871783088  8.14900568181818 18.7759248621324  6.50219282670454 18.7759248621324  C 4.85537997159091 18.7759248621324  3.30943714488636 18.1703871783088  2.14504616477273 17.0692210477941  C 0.980655184659091 15.9680549172794  0.338156960227274 14.5039809283088  0.338156960227274 12.9465877757353  L 0.338156960227274 6.08866613051471  C 0.338156960227274 4.53127297794118  0.978462357954547 3.06927274816176  2.14285333806818 1.96810661764706  C 3.30943714488636 0.866940487132353  4.85537997159091 0.261402803308824  6.50219282670454 0.261402803308824  C 8.14900568181818 0.261402803308824  9.69494850852273 0.866940487132353  10.8593394886364 1.96810661764706  C 12.02373046875 3.06927274816176  12.6640358664773 4.53334673713235  12.6640358664773 6.08866613051471  L 12.6640358664773 12.9465877757353  C 12.6640358664773 14.5039809283088  12.02373046875 15.9659811580882  10.8593394886364 17.0671472886029  Z M 7.05039950284091 1.32524126838235  L 7.05039950284091 7.65850183823529  L 11.5676225142045 7.65850183823529  L 11.5676225142045 6.0886661305147  C 11.5676225142045 3.62089269301471  9.58530717329546 1.58446116727941  7.05039950284091 1.32524126838235  Z M 11.5654296875 9  L 1.4345703125 9  L 1.4345703125 12.9465877757353  C 1.4345703125 15.5885569852941  3.70633877840909 17.7369715073529  6.5 17.7369715073529  C 9.29366122159091 17.7369715073529  11.5654296875 15.5885569852941  11.5654296875 12.9465877757353  L 11.5654296875 9  Z " fill-rule="nonzero" fill="#000000" stroke="none" transform="matrix(1 0 0 1 1307 1584 )" />
  </g>
</svg>