<?xml version="1.0" encoding="utf-8"?>
<svg version="1.1" xmlns:xlink="http://www.w3.org/1999/xlink" width="11px" height="11px" xmlns="http://www.w3.org/2000/svg">
  <g transform="matrix(1 0 0 1 -1632 -4981 )">
    <path d="M 10.0492857158203 7.07928571582031  C 10.0600481634661 7.14607171317497  10.0535569058357 7.21450037118411  10.0304285683594 7.27807143164063  C 9.60558766748961 9.21008042472502  8.00855364572782 10.6641622691212  6.04528571582031 10.9065  C 3.498 11.2325714316406  1.15342856835938 9.41285714746094  0.832857147460938 6.84592856835938  C 0.808160377775334 6.65090036228397  0.795775196612929 6.45450994159198  0.795775196612929 6.25792425646233  C 0.795775196612929 3.89590947543899  2.5556888535832 1.90403295227466  4.89971428417969 1.61307143164062  C 4.96178571582031 1.59971428417969  5.0435 1.59264286328125  5.11185714746094 1.59185714746094  C 5.08357143164062 1.33257143164063  5.049 1.09214286328125  5.027 0.88  C 4.99164285253906 0.605785715820312  4.95628571582031 0.400714284179688  4.95628571582031 0.332357147460938  C 4.93507143164063 0.256928579101563  4.94135714746094 0.167357147460938  4.99557143164062 0.106071431640625  C 5.03941091508186 0.043661906471464  5.1108997983271 0.00651536848061803  5.1871680691888 0.00651536848061803  C 5.23964436145912 0.00651536848061803  5.29059946200181 0.0241435942012382  5.33185714746094 0.0565714316406251  L 5.33814285253906 0.0699285683593751  L 5.53142856835938 0.2475  L 6.89228571582031 1.31057143164063  L 7.08478571582031 1.45357143164063  L 7.24978571582031 1.57614285253906  C 7.30478571582031 1.617  7.33228571582031 1.67121428417969  7.34642856835938 1.73328571582031  C 7.35793468617692 1.7967871386567  7.34066603096533 1.86212022167219  7.29928571582031 1.91164285253906  L 7.17671428417969 2.07664285253906  L 7.03371428417969 2.26914285253906  L 5.97142856835938 3.63  L 5.81507143164063 3.82957143164063  L 5.80171428417969 3.83664285253906  C 5.71421614256014 3.93595933770678  5.56508151748486 3.95135167472994  5.45914285253906 3.872  C 5.39707142089844 3.817  5.35542856835938 3.73528571582031  5.36878571582031 3.65985714746094  C 5.35464286328125 3.59857143164062  5.33342856835938 3.38642857910156  5.29807143164062 3.11221428417969  C 5.26978571582031 2.9205  5.2415 2.695  5.21321428417969 2.46871428417969  C 5.14407143164062 2.46871428417969  5.06942856835938 2.48992856835938  5.00107143164063 2.48992856835938  C 2.91892857910156 2.75314285253906  1.42685714746094 4.65771428417969  1.68928571582031 6.73907143164062  C 1.9525 8.82121428417969  3.85707143164063 10.3132857158203  5.93842856835938 10.0500714316406  C 7.56340466872356 9.85131713121672  8.87798077771483 8.63333117051254  9.19992856835938 7.02821428417969  C 9.24339129882691 6.85380821470971  9.39061852411709 6.72474945666731  9.56921428417969 6.7045  C 9.80807143164063 6.66914285253906  10.0351428525391 6.84592856835937  10.0500714316406 7.07928571582031  Z " fill-rule="nonzero" fill="#000000" stroke="none" transform="matrix(1 0 0 1 1632 4981 )" />
  </g>
</svg>