<?xml version="1.0" encoding="utf-8"?>
<svg version="1.1" xmlns:xlink="http://www.w3.org/1999/xlink" width="13px" height="18px" xmlns="http://www.w3.org/2000/svg">
  <g transform="matrix(1 0 0 1 -1587 -5254 )">
    <path d="M 0.4062412109375 0.8707158203125  C 0.300913610163099 1.04804528679529  0.246453951595806 1.25095569559246  0.2488349609375 1.457193359375  L 0.385150390625 13.2686591796875  C 0.392315429687501 13.8888505859375  0.900875976562501 14.3858212890625  1.52108984375 14.3786787109375  C 1.78684704329603 14.3756068623471  2.04290252278073 14.2783832979489  2.2437255859375 14.1042958984375  L 5.1173779296875 11.613310546875  L 8.0475869140625 16.6885615234375  C 8.357705078125 17.2256923828125  9.0445380859375 17.4097373046875  9.5816689453125 17.099619140625  L 10.8128876953125 16.388775390625  C 11.350041015625 16.0786572265625  11.5340634765625 15.39182421875  11.2239453125 14.854693359375  L 8.2937587890625 9.779419921875  L 11.8903837890625 8.5353759765625  C 12.476546875 8.3326435546875  12.787361328125 7.6930908203125  12.5846064453125 7.106927734375  C 12.4978392299311 6.85606405170888  12.325017440923 6.64404343533849  12.0967998046875 6.508478515625  L 1.94533203125 0.4786826171875  C 1.412064453125 0.1619384765625  0.7230078125 0.3374482421875  0.4062412109375 0.8707158203125  Z " fill-rule="nonzero" fill="#000000" stroke="none" transform="matrix(1 0 0 1 1587 5254 )" />
  </g>
</svg>