<?xml version="1.0" encoding="utf-8"?>
<svg version="1.1" xmlns:xlink="http://www.w3.org/1999/xlink" width="20px" height="19px" xmlns="http://www.w3.org/2000/svg">
  <g transform="matrix(1 0 0 1 -1652 -5422 )">
    <path d="M 16.9642857196514 3.73892856347656  L 16.962912090595 3.73892856347656  L 16.8942307692308 3.74028570898438  C 16.615595689873 3.74749935057447  16.3401979756311 3.80118379752619  16.0796703350361 3.89907143652344  L 16.0796703350361 2.9545  C 16.0796703350361 1.84164285449219  15.0631868239183 0.935071436523437  13.8118131948618 0.935071436523437  C 13.4299450683594 0.935071436523437  13.0576923076923 1.02057143652344  12.7252747333233 1.18207143652344  C 12.3585164888822 0.468214291015625  11.5521978102464 0  10.662087909405 0  C 9.76923076923077 0  8.96428571965144 0.468214291015625  8.59890110426683 1.18207143652344  C 8.26062785472331 1.01881769390459  7.88883186613535 0.934762653004575  7.51236264272837 0.936428563476562  C 6.26236264272837 0.936428563476562  5.24450550255409 1.843  5.24450550255409 2.95585714550781  L 5.24450550255409 9.29235714550781  L 4.14560439828726 7.59592856347656  C 3.83933703907725 7.1089085621022  3.34958693564276 6.76223863670501  2.78434065129207 6.63235714550781  C 2.22115384615385 6.49664285449219  1.61950548377404 6.57128570898438  1.1181318734976 6.83864285449219  C 0.092032958984375 7.38557143652344  -0.299450552133413 8.62328570898437  0.247252741887019 9.595  L 0.256868126502404 9.614  C 0.445054931640625 9.956  1.20054944786659 11.324  3.04120879657452 14.5987857089844  C 4.03846153846154 16.3766428544922  5.13736264272836 17.6482857089844  6.30631867863582 18.3797857089844  C 7.24725274188702 18.9701428544922  7.91483516751803 19  8.03983516751803 19  L 13.289835167518 19  C 14.2197802170974 19  15.085164832482 18.7312857089844  15.8612637282151 18.1992857089844  C 16.582417574369 17.7066428544922  17.2060439453125 16.9955  17.7156593487079 16.0875714365234  C 18.707417593149 14.3192142910156  19.2321428598257 11.8804285820313  19.2321428598257 9.03178570898437  L 19.2321428598257 5.75971429101563  C 19.2321428598257 4.6455  18.2156593487079 3.73892858203125  16.9642857196514 3.73892856347656  Z M 8.39560439828726 9.03314285449219  C 8.39560439828726 9.37378570898438  8.70604396409255 9.64928570898437  9.08791209059495 9.65064285449219  C 9.47115384615385 9.65064285449219  9.78021978290264 9.37378570898438  9.78159341195913 9.03314285449219  L 9.78159341195913 2.01942856347656  C 9.78159341195913 1.5865  10.1771978102464 1.235  10.6634615384615 1.235  C 11.1497252666767 1.235  11.5453296649639 1.58785714550781  11.5453296649639 2.01942856347656  L 11.5453296649639 9.03314285449219  C 11.5453296649639 9.37242856347656  11.8557692307692 9.65064285449219  12.2376373572716 9.65064285449219  C 12.6208791128305 9.65064285449219  12.9313186786358 9.37378570898438  12.9313186786358 9.03314285449219  L 12.9313186786358 2.9545  C 12.9313186786358 2.52157143652344  13.3269230769231 2.17007143652344  13.8131868051382 2.17007143652344  C 14.2994505333534 2.17007143652344  14.6950549316406 2.52292858203125  14.6950549504207 2.9545  L 14.6950549504207 9.96821429101563  C 14.6950549504207 10.3075  15.005494516226 10.5857142910156  15.3873626427284 10.5857142910156  C 15.7706043982873 10.5857142910156  16.0810439640926 10.3088571455078  16.0810439640926 9.96821429101563  L 16.0810439640926 5.76107143652344  C 16.0810439640926 5.32678572753906  16.4766483623798 4.97392858203125  16.962912090595 4.97392856347656  C 17.4491758188101 4.97392856347656  17.8447802170974 5.32678570898438  17.8447802170974 5.76107143652344  L 17.8447802170974 9.03314285449219  C 17.8447802170974 11.6904285634766  17.369505483774 13.9392142910156  16.4739011042668 15.5365714365234  C 15.9024725247897 16.5544285820312  14.8859890136719 17.7663571455078  13.2870879094051 17.7663571455078  L 8.05631867863582 17.7663571455078  C 8.0082417555589 17.7622857089844  7.60302197265625 17.7093571455078  6.99862637094351 17.3049285634766  C 6.34752747521034 16.8706428544922  5.34752747521034 15.9545714179688  4.27884615384616 14.0477857089844  C 3.34464459088809 12.3897660224585  2.41698187621589 10.7281581863959  1.49587911283053 9.063  L 1.48214285982572 9.03178570898438  L 1.47664834359976 9.02771429101563  C 1.27018358206401 8.61792456214905  1.42701448344326 8.12017355857556  1.83241757436899 7.89857143652344  C 2.22102413090194 7.6936851873243  2.70391453171313 7.82336955077092  2.9340659367488 8.19442856347657  L 4.57967033503606 10.7322857089844  C 4.89560439828726 11.2507142724609  5.26510990084135 11.5126428544922  5.67170329402043 11.5126428544922  C 5.74428852498556 11.5124995644802  5.81662802981382 11.5043053906771  5.88736264272837 11.4882142910156  C 6.38186814528245 11.3769285820313  6.63049451622596 10.963  6.63049449744591 10.2613571455078  L 6.63049449744591 2.9545  C 6.63049449744591 2.52157143652344  7.02609889573317 2.17007143652344  7.51236264272837 2.17007143652344  C 7.99862637094351 2.17007143652344  8.39560439828726 2.52292858203125  8.39560439828726 2.9545  L 8.39560439828726 9.03314285449219  Z " fill-rule="nonzero" fill="#000000" stroke="none" transform="matrix(1 0 0 1 1652 5422 )" />
  </g>
</svg>