<?xml version="1.0" encoding="utf-8"?>
<svg version="1.1" xmlns:xlink="http://www.w3.org/1999/xlink" width="8px" height="8px" xmlns="http://www.w3.org/2000/svg">
  <g transform="matrix(1 0 0 1 -1667 -5341 )">
    <path d="M 6.9952 0.96  L 1.0384 0.96  L 6.9952 0.96  C 7.30112 0.96  7.5376 1.19792  7.55296 1.47648  L 7.55376 1.50544  L 7.55376 6.57872  C 7.55376 6.86  7.31008 7.1072  7.02496 7.12336  L 6.9952 7.12416  L 1.0384 7.12416  C 0.73248 7.12416  0.49616 6.8864  0.4808 6.60768  L 0.48 6.57872  L 0.48 1.50544  C 0.48 1.20672  0.70608 0.976  1.00704 0.9608  L 1.0384 0.96  L 6.9952 0.96  Z M 6.7904 6.28768  L 6.7904 3.06928  C 6.52992 2.54192  6.0832 3.01488  5.99008 3.1056  L 4.18432 4.9968  L 3.1792 4.3056  C 3.06752 4.2328  2.93712 4.2512  2.84416 4.34192  L 1.68992 5.924  C 1.59696 6.03296  1.59696 6.16032  1.70864 6.2512  C 1.76448 6.28768  1.82032 6.30576  1.87616 6.30576  C 1.87616 6.30576  6.7904 6.30576  6.7904 6.28768  Z M 2.9 2.46928  C 2.9 2.14192  2.6208 1.88736  2.30432 1.88736  C 1.98784 1.88736  1.70864 2.14192  1.70864 2.46928  C 1.70864 2.79648  1.98784 3.05104  2.30432 3.05104  C 2.63936 3.05104  2.9 2.79664  2.9 2.46928  Z " fill-rule="nonzero" fill="#000000" stroke="none" transform="matrix(1 0 0 1 1667 5341 )" />
  </g>
</svg>