<?xml version="1.0" encoding="utf-8"?>
<svg version="1.1" xmlns:xlink="http://www.w3.org/1999/xlink" width="13px" height="13px" xmlns="http://www.w3.org/2000/svg">
  <g transform="matrix(1 0 0 1 -1687 -3293 )">
    <path d="M 12.9458333333333 6.5  C 12.9458333333333 2.94040364583333  10.0595963541667 0.0541666666666667  6.5 0.0541666666666667  C 2.94040364583333 0.0541666666666667  0.0541666666666667 2.94040364583333  0.0541666666666667 6.5  C 0.0541666666666667 10.0595963541667  2.94040364583333 12.9458333333333  6.5 12.9458333333333  C 10.0595963541667 12.9458333333333  12.9458333333333 10.0595963541667  12.9458333333333 6.5  Z M 3.5734765625 4.5921484375  C 3.5734765625 4.32740885416667  3.78785807291667 4.11446614583333  4.05115885416667 4.11446614583333  L 7.62802083333333 4.11446614583333  C 7.89132161458333 4.11446614583333  8.105703125 4.32740885416667  8.105703125 4.5921484375  C 8.105703125 4.85688802083333  7.89276041666667 5.06983072916667  7.62802083333333 5.06983072916667  L 4.05115885416667 5.06983072916667  C 3.78785807291667 5.06983072916667  3.5734765625 4.85688802083333  3.5734765625 4.5921484375  Z M 8.105703125 8.4078515625  C 8.105703125 8.67115234375  7.89276041666667 8.88553385416667  7.62945963541667 8.88553385416667  L 4.05115885416667 8.88553385416667  C 3.78785807291667 8.88553385416667  3.5734765625 8.67259114583333  3.5734765625 8.4078515625  C 3.5734765625 8.14455078125  3.78641927083333 7.93016927083333  4.05115885416667 7.93016927083333  L 7.62802083333333 7.93016927083333  C 7.89132161458333 7.93016927083333  8.105703125 8.14311197916667  8.105703125 8.4078515625  Z M 9.96319661458333 6.49568359375  C 9.96319661458333 6.57481770833333  9.93298177083333 6.64963541666667  9.87974609375 6.70574869791667  L 8.59345703125 7.62802083333333  L 8.58770182291667 7.63377604166667  C 8.53014973958333 7.691328125  8.45389322916667 7.72298177083333  8.3733203125 7.72298177083333  C 8.29274739583333 7.72298177083333  8.21649088541667 7.691328125  8.15893880208333 7.63377604166667  C 8.10138671875 7.57622395833333  8.071171875 7.49996744791667  8.071171875 7.41651692708333  C 8.071171875 7.33306640625  8.10282552083333 7.25680989583333  8.15893880208333 7.1992578125  L 8.55748697916667 6.793515625  L 3.88138020833333 6.793515625  C 3.71591796875 6.793515625  3.57635416666667 6.65395182291667  3.57635416666667 6.48848958333333  C 3.57635416666667 6.32302734375  3.71591796875 6.18346354166667  3.88138020833333 6.18346354166667  L 8.54885416666667 6.18346354166667  L 8.1488671875 5.77772135416667  C 8.09275390625 5.72160807291667  8.06110026041667 5.64391276041667  8.06110026041667 5.56190104166667  C 8.06110026041667 5.47988932291667  8.09131510416667 5.4036328125  8.14742838541667 5.34751953125  C 8.20354166666667 5.28852864583333  8.27692057291667 5.256875  8.35749348958333 5.25543619791667  C 8.44094401041667 5.25399739583333  8.520078125 5.28565104166667  8.57906901041667 5.34608072916667  L 8.58482421875 5.3518359375  L 9.88118489583333 6.2841796875  C 9.93442057291667 6.34029296875  9.96319661458333 6.41511067708333  9.96319661458333 6.49568359375  Z " fill-rule="nonzero" fill="#000000" stroke="none" transform="matrix(1 0 0 1 1687 3293 )" />
  </g>
</svg>