<?xml version="1.0" encoding="utf-8"?>
<svg version="1.1" xmlns:xlink="http://www.w3.org/1999/xlink" width="7px" height="7px" xmlns="http://www.w3.org/2000/svg">
  <g transform="matrix(1 0 0 1 -1729 -5340 )">
    <path d="M 5.201538453125 6.71084615332031  L 5.20153845996094 7  L 1.79819230664063 7  L 1.79819230664063 6.71030769335938  C 1.94788461328125 6.6567307734375  2.09892307324219 6.61015384667969  2.25211538671875 6.57030769335937  C 2.40503846679688 6.52992308007812  2.56980769335938 6.49707692675781  2.74669230664063 6.46988461328125  L 2.74669230664063 0.51988461328125  L 1.456 0.51988461328125  L 0.915653846679688 1.95030769335937  L 0.660961540039062 1.95030769335937  C 0.6405 1.81703845996094  0.623538459960937 1.66492308007812  0.609807693359375 1.49503845996094  C 0.596076919921875 1.32569230664062  0.5845 1.15230769335937  0.574 0.97488461328125  C 0.5635 0.799346153320313  0.555423080078125 0.62488461328125  0.548961540039063 0.455538459960938  C 0.541961540039062 0.286192306640625  0.538461540039063 0.133538459960937  0.538461540039063 0  L 6.46153845996094 0  C 6.46153845996094 0.133538459960937  6.4577692265625 0.284038459960938  6.45103845996094 0.450153846679687  C 6.44403845996094 0.616807693359375  6.43542307324219 0.788576926757813  6.42492307324219 0.965192306640625  C 6.41442307324219 1.14180768652344  6.40473076660156 1.31519230664063  6.39423076660156 1.48534615332031  C 6.384 1.65523076660156  6.36865384667969 1.81084615332031  6.34792307324219 1.95057691992187  L 6.0797692265625 1.95057691992187  L 5.54399999316406 0.52015383984375  L 4.263538453125 0.52015383984375  L 4.263538453125 6.47042307324219  C 4.44015383984375 6.50407691992188  4.60546153320313 6.53719230664063  4.75784614648438 6.57084615332031  C 4.911038453125 6.60396154003906  5.05857691308594 6.65026923339844  5.201538453125 6.71084615332031  Z " fill-rule="nonzero" fill="#000000" stroke="none" transform="matrix(1 0 0 1 1729 5340 )" />
  </g>
</svg>