<?xml version="1.0" encoding="utf-8"?>
<svg version="1.1" xmlns:xlink="http://www.w3.org/1999/xlink" width="14px" height="14px" xmlns="http://www.w3.org/2000/svg">
  <g transform="matrix(1 0 0 1 -1586 -5421 )">
    <path d="M 11.1015625 10.190099609375  L 13.8359375 7  L 11.1015625 3.809900390625  L 11.1015625 6.544275390625  L 7.455724609375 6.544275390625  L 7.455724609375 2.8984375  L 6.54426171875 2.8984375  L 6.54426171875 6.544275390625  L 2.8984375 6.544275390625  L 2.8984375 3.809900390625  L 0.1640625 7  L 2.8984375 10.190099609375  L 2.8984375 7.455724609375  L 6.544275390625 7.455724609375  L 6.544275390625 11.1015625  L 3.809900390625 11.1015625  L 7 13.8359375  L 10.190099609375 11.1015625  L 7.455724609375 11.1015625  L 7.455724609375 7.455724609375  L 11.1015625 7.455724609375  L 11.1015625 10.190099609375  Z M 10.19011328125 2.8984375  L 7 0.1640625  L 3.809900390625 2.8984375  L 10.19011328125 2.8984375  Z " fill-rule="nonzero" fill="#000000" stroke="none" transform="matrix(1 0 0 1 1586 5421 )" />
  </g>
</svg>