<?xml version="1.0" encoding="utf-8"?>
<svg version="1.1" xmlns:xlink="http://www.w3.org/1999/xlink" width="26px" height="26px" xmlns="http://www.w3.org/2000/svg">
  <defs>
    <filter x="3447px" y="4383px" width="26px" height="26px" filterUnits="userSpaceOnUse" id="filter46">
      <feOffset dx="1" dy="1" in="SourceAlpha" result="shadowOffsetInner" />
      <feGaussianBlur stdDeviation="2.5" in="shadowOffsetInner" result="shadowGaussian" />
      <feComposite in2="shadowGaussian" operator="atop" in="SourceAlpha" result="shadowComposite" />
      <feColorMatrix type="matrix" values="0 0 0 0 0  0 0 0 0 0  0 0 0 0 0  0 0 0 0.698039215686274 0  " in="shadowComposite" />
    </filter>
    <g id="widget47">
      <path d="M 3459 4387  C 3463.48 4387  3467 4390.52  3467 4395  C 3467 4399.48  3463.48 4403  3459 4403  C 3454.52 4403  3451 4399.48  3451 4395  C 3451 4390.52  3454.52 4387  3459 4387  Z " fill-rule="nonzero" fill="#009dd9" stroke="none" />
      <path d="M 3459 4387.5  C 3463.2 4387.5  3466.5 4390.8  3466.5 4395  C 3466.5 4399.2  3463.2 4402.5  3459 4402.5  C 3454.8 4402.5  3451.5 4399.2  3451.5 4395  C 3451.5 4390.8  3454.8 4387.5  3459 4387.5  Z " stroke-width="1" stroke="#ffffff" fill="none" />
    </g>
  </defs>
  <g transform="matrix(1 0 0 1 -3447 -4383 )">
    <use xlink:href="#widget47" filter="url(#filter46)" />
    <use xlink:href="#widget47" />
  </g>
</svg>