<?xml version="1.0" encoding="utf-8"?>
<svg version="1.1" xmlns:xlink="http://www.w3.org/1999/xlink" width="19px" height="29px" xmlns="http://www.w3.org/2000/svg">
  <g transform="matrix(1 0 0 1 -2400 -3914 )">
    <path d="M 15.8713423295455 26.0498563878677  C 14.1695401278409 27.7337488511029  11.9100852272727 28.6579905790441  9.50320490056818 28.6579905790441  C 7.09632457386364 28.6579905790441  4.83686967329546 27.7337488511029  3.13506747159091 26.0530215992647  C 1.43326526988636 24.3722943474265  0.494229403409092 22.1376551011029  0.494229403409092 19.7605813419118  L 0.494229403409092 9.29322725183824  C 0.494229403409092 6.91615349264706  1.43006036931818 4.68467945772059  3.13186257102273 3.00395220588235  C 4.83686967329546 1.32322495404412  7.09632457386364 0.398983226102941  9.50320490056818 0.398983226102941  C 11.9100852272727 0.398983226102941  14.1695401278409 1.32322495404412  15.8713423295455 3.00395220588235  C 17.57314453125 4.68467945772059  18.5089754971591 6.91931870404412  18.5089754971591 9.29322725183824  L 18.5089754971591 19.7605813419118  C 18.5089754971591 22.1376551011029  17.57314453125 24.3691291360294  15.8713423295455 26.0498563878677  Z M 10.3044300426136 2.02273667279412  L 10.3044300426136 11.6892922794118  L 16.9065252130682 11.6892922794118  L 16.9065252130682 9.29322725183823  C 16.9065252130682 5.52662568933823  14.0092950994318 2.41838809742647  10.3044300426136 2.02273667279412  Z M 16.9033203125 13.2718979779412  L 2.0966796875 13.2718979779412  L 2.0966796875 19.7605813419118  C 2.0966796875 23.7930606617647  5.41695667613636 27.0722196691176  9.5 27.0722196691176  C 13.5830433238636 27.0722196691176  16.9033203125 23.7930606617647  16.9033203125 19.7605813419118  L 16.9033203125 13.2718979779412  Z " fill-rule="nonzero" fill="#000000" stroke="none" transform="matrix(1 0 0 1 2400 3914 )" />
  </g>
</svg>