<?xml version="1.0" encoding="utf-8"?>
<svg version="1.1" xmlns:xlink="http://www.w3.org/1999/xlink" width="21px" height="12px" xmlns="http://www.w3.org/2000/svg">
  <g transform="matrix(1 0 0 1 -2546 -3873 )">
    <path d="M 20.6103515625 0.395833333333334  C 20.8701171875 0.659722222222221  21 0.972222222222219  21 1.33333333333333  C 21 1.69444444444444  20.8701171875 2.00694444444444  20.6103515625 2.27083333333333  L 11.4228515625 11.6041666666667  C 11.1630859375 11.8680555555556  10.85546875 12  10.5 12  C 10.14453125 12  9.8369140625 11.8680555555556  9.5771484375 11.6041666666667  L 0.3896484375 2.27083333333333  C 0.1298828125 2.00694444444444  0 1.69444444444444  0 1.33333333333333  C 0 0.972222222222219  0.1298828125 0.659722222222221  0.3896484375 0.395833333333334  C 0.6494140625 0.131944444444443  0.95703125 0  1.3125 0  L 19.6875 0  C 20.04296875 0  20.3505859375 0.131944444444443  20.6103515625 0.395833333333334  Z " fill-rule="nonzero" fill="#000000" stroke="none" transform="matrix(1 0 0 1 2546 3873 )" />
  </g>
</svg>