<?xml version="1.0" encoding="utf-8"?>
<svg version="1.1" xmlns:xlink="http://www.w3.org/1999/xlink" width="40px" height="40px" xmlns="http://www.w3.org/2000/svg">
  <defs>
    <filter x="146px" y="11px" width="40px" height="40px" filterUnits="userSpaceOnUse" id="filter14">
      <feOffset dx="1" dy="1" in="SourceAlpha" result="shadowOffsetInner" />
      <feGaussianBlur stdDeviation="2.5" in="shadowOffsetInner" result="shadowGaussian" />
      <feComposite in2="shadowGaussian" operator="atop" in="SourceAlpha" result="shadowComposite" />
      <feColorMatrix type="matrix" values="0 0 0 0 0  0 0 0 0 0  0 0 0 0 0  0 0 0 0.698039215686274 0  " in="shadowComposite" />
    </filter>
    <g id="widget15">
      <path d="M 165 15  C 173.4 15  180 21.6  180 30  C 180 38.4  173.4 45  165 45  C 156.6 45  150 38.4  150 30  C 150 21.6  156.6 15  165 15  Z " fill-rule="nonzero" fill="#009dd9" stroke="none" />
      <path d="M 165 15.5  C 173.12 15.5  179.5 21.88  179.5 30  C 179.5 38.12  173.12 44.5  165 44.5  C 156.88 44.5  150.5 38.12  150.5 30  C 150.5 21.88  156.88 15.5  165 15.5  Z " stroke-width="1" stroke="#ffffff" fill="none" />
    </g>
  </defs>
  <g transform="matrix(1 0 0 1 -146 -11 )">
    <use xlink:href="#widget15" filter="url(#filter14)" />
    <use xlink:href="#widget15" />
  </g>
</svg>