<?xml version="1.0" encoding="utf-8"?>
<svg version="1.1" xmlns:xlink="http://www.w3.org/1999/xlink" width="18px" height="28px" xmlns="http://www.w3.org/2000/svg">
  <g transform="matrix(1 0 0 1 -17 -249 )">
    <path d="M 4.12893981640624 5.57593123828125  C 4.16905443749999 5.89684815234375  4.44985673046875 6.1776504453125  4.810888265625 6.17765041796875  L 13.1547277851563 6.17765041796875  C 13.5157592929687 6.17765041796875  13.7965615859375 5.896848125  13.7965616132812 5.5358166171875  C 13.7965616132812 5.214899703125  13.5558739414063 4.93409741015625  13.2349570273438 4.89398281640625  C 13.1547278125 2.8080229296875  11.5501432695312 1.04297995703125  9.42406876171875 0.84240687890625  L 9.42406876171875 0.48137537109375  C 9.42406876171875 0.200573078125  9.22349568359375 0  8.94269341796875 0  C 8.66189115234375 0  8.46131804687499 0.200573078125  8.46131804687499 0.48137537109375  L 8.46131804687499 0.84240687890625  C 6.37535816015624 1.08309455078125  4.7306590234375 2.8080229296875  4.69054440234375 4.93409741015625  C 4.36962748828125 4.97421203125  4.12893981640624 5.25501432421875  4.12893981640624 5.57593123828125  Z M 13.19484240625 7.26074499609375  L 13.19484240625 7.220630375  L 13.19484240625 6.4584527109375  L 4.65042980859375 6.4584527109375  L 4.65042980859375 7.26074499609375  L 4.2492836796875 7.26074499609375  L 4.2492836796875 12.2349570273438  L 5 12.2349570273438  L 5 24.2292263554687  L 13 24.2292263554687  L 13 12.2349570273438  L 13.5959885351562 12.2349570273438  L 13.5959885351562 7.26074499609375  L 13.19484240625 7.26074499609375  Z M 4.20916905859375 24.5501432695312  L 4.20916905859375 25.5931231992188  L 13.7163323710937 25.5931231992188  L 13.7163323710937 24.5501432695312  L 4.20916905859375 24.5501432695312  Z M 2.123209171875 11.75358165625  L 2.123209171875 7.5816618828125  L 2.123209171875 7.461318046875  C 2.123209171875 7.42120342578125  2.08309455078125 7.26074496875  1.96275071484375 7.26074499609375  C 1.04011462109375 7.26074499609375  0.358166199218749 8.30372492578125  0.358166199218749 9.66762176953125  C 0.358166199218749 11.0315186132812  1.0802292421875 12.0744985703125  2.0028653359375 12.0744985703125  C 2.123209171875 12.0744985703125  2.16332379296875 11.954154734375  2.16332379296875 11.8739254921875  C 2.16332379296875 11.8338108710938  2.16332379296875 11.7936962773438  2.123209171875 11.75358165625  Z M 3.24641834375 12.7163323710937  C 3.64756447265625 12.7564469921875  4.0085960078125 12.435530078125  4.00859598046875 12.0343839492187  L 4.00859598046875 7.42120342578125  C 4.00859598046875 7.020057296875  3.64756447265625 6.6991403828125  3.24641834375 6.69914041015625  C 2.80515759375 6.69914041015625  2.4842406796875 7.02005732421875  2.4842406796875 7.42120342578125  L 2.4842406796875 11.994269328125  C 2.4842406796875 12.3954154570312  2.8452721875 12.7163323710937  3.24641834375 12.7163323710937  Z M 14.799426921875 26.6762177773438  C 14.799426921875 26.19484240625  14.4383954140625 25.8338108984375  13.9971346640625 25.8338108984375  L 3.928366765625 25.8338108984375  C 3.487106015625 25.8338108984375  3.08595988671875 26.19484240625  3.08595988671875 26.6762177773438  C 3.08595988671875 27.1174785273437  3.44699139453125 27.51862465625  3.928366765625 27  L 13.9570200703125 27  C 14.3982808203125 27.5186246289063  14.7994269492187 27.1575931210938  14.799426921875 26.6762177773438  Z M 15.3209169140625 7.42120342578125  C 15.3610315351563 7.020057296875  15 6.6991403828125  14.55873925 6.69914041015625  C 14.1174785 6.69914041015625  13.7965615859375 7.02005732421875  13.7965616132813 7.42120342578125  L 13.7965616132813 11.994269328125  C 13.7965616132813 12.3954154570312  14.1575931210938 12.7163323710937  14.55873925 12.7163323710937  C 15 12.7163323710937  15.3209169140625 12.3954154570312  15.3209169140625 11.994269328125  L 15.3209169140625 7.42120342578125  Z M 17.4469913945312 9.74785101171875  C 17.4469913945312 8.38395416796875  16.7249283515625 7.3008596171875  15.8825215 7.30085958984375  C 15.7621776640625 7.30085958984375  15.641833828125 7.30085958984375  15.6418338007813 7.5415472890625  L 15.6418338007813 11.9140401132813  C 15.6418338007813 12.1547277851563  15.8022922578125 12.1547277851563  15.8825215 12.1547277851563  C 16.7249283789063 12.1547277851563  17.446991421875 11.071633234375  17.4469913945312 9.74785101171875  Z " fill-rule="nonzero" fill="#333333" stroke="none" transform="matrix(1 0 0 1 17 249 )" />
  </g>
</svg>