<?xml version="1.0" encoding="utf-8"?>
<svg version="1.1" xmlns:xlink="http://www.w3.org/1999/xlink" width="22px" height="18px" xmlns="http://www.w3.org/2000/svg">
  <g transform="matrix(1 0 0 1 -14 -361 )">
    <path d="M 14.4353515625 15.8642578125  L 19.941796875 15.8642578125  L 19.941796875 8.987109375  C 19.941796875 7.4681640625  18.7107421875 6.237109375  17.191796875 6.237109375  L 11.691796875 6.237109375  L 11.691796875 4.862109375  L 10.316796875 4.862109375  L 10.316796875 6.237109375  L 7.5625 6.237109375  L 7.5625 2.1099609375  L 2.0603515625 2.1099609375  L 2.0603515625 8.987109375  C 2.0603515625 10.5060546875  3.29140625 11.737109375  4.8103515625 11.737109375  L 10.3103515625 11.737109375  L 10.3103515625 13.112109375  L 11.6853515625 13.112109375  L 11.6853515625 11.737109375  L 14.4353515625 11.737109375  L 14.4353515625 15.8642578125  Z M 0.6853515625 1.4224609375  L 0.6853515625 0.0474609374999999  L 8.9375 0.0474609374999999  L 8.9375 1.4224609375  L 0.6853515625 1.4224609375  Z M 13.0646484375 17.9267578125  L 13.0646484375 16.5517578125  L 21.316796875 16.5517578125  L 21.316796875 17.9267578125  L 13.0646484375 17.9267578125  Z " fill-rule="nonzero" fill="#000000" stroke="none" transform="matrix(1 0 0 1 14 361 )" />
  </g>
</svg>