<?xml version="1.0" encoding="utf-8"?>
<svg version="1.1" xmlns:xlink="http://www.w3.org/1999/xlink" width="16px" height="22px" xmlns="http://www.w3.org/2000/svg">
  <g transform="matrix(1 0 0 1 -19 -246 )">
    <path d="M 1.34866667382813 20.1229032167969  C 1.34866667382813 20.0687311816406  1.39266667382813 20.0247311816406  1.44683870898437 20  L 14.4462365644531 20  C 14.5004085996094 20.0247311816406  14.5444085996094 20.0687311816406  14.5444085996094 20.1229032167969  L 14.5444085996094 21.7047742011719  C 14.544408756379 21.7590315197005  14.5004937262124 21.8030523716021  14.4462365644531 21.8031828007813  L 1.44683870898438 21.8029462363281  C 1.39267375161893 21.8028161849286  1.34879672522766 21.7589391585373  1.34866667382813 21.7047742011719  L 1.34866667382813 20.1229032167969  Z M 0.762473128906247 7.363849453125  C 0.68275269140625 3.585290328125  3.67262365429688 0  7.90040859960937 0  C 12.0558064550781 0  15.1088387089844 3.527569890625  15.0409462363281 7.33262365429687  C 14.967849453125 11.4215483808594  11.9323225820312 15.41513978125  9.21567741796875 18.1722365644531  C 7.8817204375 19.5258279648437  8.02980645507812 19.645290328125  6.68425807421875 18.2921720351562  C 3.90705376367187 15.4991182714844  0.850236564453122 11.5190107441406  0.762473128906247 7.363849453125  Z M 11.2439354921875 7.14905376367187  C 11.2439354921875 5.30294623632812  9.74651612695313 3.80552689257812  7.90040859960937 3.80552687109375  C 6.05430107226563 3.80552687109375  4.55711827148438 5.30318277929687  4.55688172851562 7.14905376367187  C 4.55688172851562 8.99539785546875  6.05430109375 10.4925806347656  7.90040859960937 10.4925806347656  C 9.74675269140625 10.4925806347656  11.2439354707031 8.99539783398438  11.2439354921875 7.14905376367187  Z " fill-rule="nonzero" fill="#000000" stroke="none" transform="matrix(1 0 0 1 19 246 )" />
  </g>
</svg>