<?xml version="1.0" encoding="utf-8"?>
<svg version="1.1" xmlns:xlink="http://www.w3.org/1999/xlink" width="22px" height="19px" xmlns="http://www.w3.org/2000/svg">
  <g transform="matrix(1 0 0 1 -1544 -4314 )">
    <path d="M 12.2 4.15  C 12.2 4.3  12.35 4.3  12.5 4.3  L 19.85 4.3  C 20.15 4.3  20.3 4  20.3 3.7  L 20.3 1.9  C 20.3 1.6  20.15 1.3  19.85 1.3  L 11.15 1.3  C 10.7 1.3  10.55 1.9  10.85 2.2  L 12.2 4.15  Z M 21.5 7  C 21.5 6.1  20.9 5.5  20.15 5.5  L 12.5 5.5  C 12.2 5.5  11.75 5.35  11.6 4.9  L 8.6 1  C 8.3 0.7  8 0.55  7.55 0.55  L 2 0.55  C 1.25 0.55  0.65 1.3  1 2.05  L 1 16.75  C 0.65 17.65  1.25 18.25  2 18  L 20.15 18  C 20.9 18.25  21.5 17.5  21.5 16.75  L 21.5 7  Z M 13.25 13  C 13.55 13  13.85 13.3  13.85 13.75  C 13.85 14.2  13.55 14.5  13.1 14.5  L 3.8 14.5  C 3.35 14.5  3.05 14.2  3.05 13.75  C 3.05 13.3  3.35 13  3.8 13  L 13.25 13  Z M 17 13  C 17.45 13  17.75 13.3  17.75 13.75  C 17.75 14.2  17.45 14.5  17 14.5  L 16.4 14.5  C 15.95 14.5  15.65 14.2  15.65 13.75  C 15.65 13.3  15.95 13  16.4 13  L 17 13  Z " fill-rule="nonzero" fill="#000000" stroke="none" transform="matrix(1 0 0 1 1544 4314 )" />
  </g>
</svg>