<?xml version="1.0" encoding="utf-8"?>
<svg version="1.1" xmlns:xlink="http://www.w3.org/1999/xlink" width="13px" height="23px" xmlns="http://www.w3.org/2000/svg">
  <g transform="matrix(1 0 0 1 -19 -310 )">
    <path d="M 12.7447705869141 8.70963585693166  C 12.9009217603332 8.51842059486688  12.9328912541441 8.25433640733706  12.8268783632812 8.03138409792428  C 12.721214114779 7.80832882342869  12.496410746296 7.66619218756246  12.24959390625 7.66638391481309  L 8.01149785058594 7.66638391481309  L 12.0306397910156 0.967584078310876  C 12.0903077658744 0.868255296349723  12.1218300504891 0.754565478219915  12.1218300504891 0.638692814829582  C 12.1218300504891 0.285952513372701  11.8358775359733 0  11.4831372331063 0  L 5.34977943359375 0  C 5.08844139084928 2.59133797176039E-05  4.8534449886768 0.159149443429379  4.75639538085938 0.401799286627337  L 0.156519073242189 11.9014900209298  C 0.126374705266886 11.976912263998  0.110887711814749 12.0573905127634  0.110887711814749 12.1386136477854  C 0.110887711814749 12.4914809747343  0.39694320083811 12.7775364626141  0.749810529197562 12.7775364626141  L 3.66116484960937 12.7775364559042  L 0.151919208007812 22.1359847661493  C 0.124842024301672 22.2079290243482  0.110970008975017 22.2841691356361  0.110970008975017 22.3610401325035  C 0.110970008975017 22.7139074594523  0.397025497998377 22.9999629473322  0.749892826357829 22.9999629473322  C 0.941907865171015 22.9999629473322  1.12374177964881 22.9136060556158  1.24507980664063 22.7647878505497  L 12.7447705869141 8.70963585693166  Z M 10.9013701582031 8.94422954447042  L 2.70830045507812 18.9583902202582  L 5.18142397070312 12.363087598186  C 5.20835788210198 12.2913124542957  5.22215468388803 12.2152758981427  5.22215468388803 12.1386136071653  C 5.22215468388803 11.7858275704833  4.93622604964186 11.4998057654364  4.58344003027344 11.4996908262469  L 1.69287776757813 11.4996908262469  L 5.78239779882812 1.27784572160183  L 10.3542148701172 1.27784572160183  L 6.3350729296875 7.97664555810404  C 6.27540495482407 8.07597434006797  6.24388267020676 8.18966415820229  6.24388267020676 8.30553682159739  C 6.24388267020676 8.65827712305427  6.52983518472258 8.94422963642698  6.88257548758957 8.94422963642698  L 10.9013701582031 8.94422954447042  Z " fill-rule="nonzero" fill="#000000" stroke="none" transform="matrix(1 0 0 1 19 310 )" />
  </g>
</svg>