<?xml version="1.0" encoding="utf-8"?>
<svg version="1.1" xmlns:xlink="http://www.w3.org/1999/xlink" width="19px" height="19px" xmlns="http://www.w3.org/2000/svg">
  <g transform="matrix(1 0 0 1 -16 -366 )">
    <path d="M 18.4214343388672 8.66236905664062  L 16.8525382841797 8.66236905664062  L 16.1345688857422 9.7526188671875  L 14.0338436708984 9.7526188671875  L 14.0338436708984 9.40692988085938  L 14.1136180449219 7.4657534140625  L 11.5608380439453 6.37550363574219  L 11.5608380439453 6.32232071972656  C 11.5608380439453 5.84367447558594  11.2417405478516 5.44480257324219  10.8428686455078 5.28525382519531  L 10.8428686455078 2.83883965625  L 15.5495568095703 2.83883965625  L 15.5495568095703 1.50926672363281  L 10.6301369814453 1.50926672363281  C 10.5503626074219 0.95084610546875  10.0983078212891 0.498791287109375  9.51329574511719 0.498791287109375  C 8.92828366894531 0.498791287109375  8.44963739257812 0.950846073242188  8.3964544765625 1.50926672363281  L 3.4770346484375 1.50926672363281  L 3.4770346484375 2.86543111425781  L 8.1837228125 2.86543111425781  L 8.1837228125 5.31184528320313  C 7.758259484375 5.47139403125  7.46575344628906 5.87026590136719  7.4657534140625 6.34891217773438  L 7.4657534140625 6.40209509375  L 4.91297341308594 7.49234487207031  L 4.99274778710937 9.43352133886719  L 4.99274778710937 9.7526188671875  L 2.89202257226562 9.7526188671875  L 2.17405317382812 8.66236905664062  L 0.631748577148436 8.66236905664062  L 0.631748577148436 16.6929895361328  L 2.09427879980469 16.6929895361328  L 2.65269945019531 15.6825140996094  L 5.28525382519531 15.6825140996094  L 5.23207090917969 15.735697015625  L 4.46091862695313 16.4004834658203  L 4.46091862695313 17.4109589023437  L 4.43432716894531 18.5012087128906  L 14.5922642890625 18.5012087128906  L 14.5390813730469 17.4109589023437  L 14.5390813730469 16.4004834658203  L 13.7945205488281 15.735697015625  L 13.7413376328125 15.6825140996094  L 16.4004834658203 15.6825140996094  L 16.9589041162109 16.6929895361328  L 18.4214343388672 16.6929895361328  L 18.4214343388672 8.66236905664062  Z " fill-rule="nonzero" fill="#333333" stroke="none" transform="matrix(1 0 0 1 16 366 )" />
  </g>
</svg>