<?xml version="1.0" encoding="utf-8"?>
<svg version="1.1" xmlns:xlink="http://www.w3.org/1999/xlink" width="18px" height="18px" xmlns="http://www.w3.org/2000/svg">
  <g transform="matrix(1 0 0 1 -16 -418 )">
    <path d="M 3 0.766666658203125  C 2.74761904882813 0.519047609375  2.56190475585938 0.33333331640625  2.31428570703125 0.333333341796875  L 1.38571429296875 0.333333341796875  C 1.13809524414062 0.333333341796875  0.952380951171875 0.519047634765625  1 0.766666658203125  L 1 17.2333333417969  C 0.952380951171875 17.480952390625  1.13809524414062 17.6666666835937  1.38571429296875 17.6666666582031  L 2.31428570703125 17.6666666582031  C 2.56190475585937 17.6666666582031  2.74761904882813 17.4809523652344  3 17.2333333417969  L 3 0.766666658203125  Z M 17 0.766666658203125  C 17.3571428535156 0.519047609375  17.1095238046875 0.33333331640625  16.9238095117188 0.333333341796875  L 15.9952380976563 0.333333341796875  C 15.7476190488281 0.333333341796875  15.5619047558594 0.519047634765625  15.5619047558594 0.766666658203125  L 15.5619047558594 17.2333333417969  C 15.5619047558594 17.480952390625  15.7476190488281 17.6666666835937  15.9952380976563 17.6666666582031  L 16.9238095117188 17.6666666582031  C 17.1714285605469 17.6666666582031  17.3571428535156 17.4809523652344  17 17.2333333417969  L 17 0.766666658203125  Z M 14.7571428535156 1.75714285351562  C 14.7571428535156 1.5095238046875  14.5714285605469 1.32380951171875  14.3238095117187 1.32380951171875  L 3.98571429296875 1.32380951171875  C 3.73809524414063 1.32380951171875  3.55238095117188 1.5095238046875  3.55238095117188 1.75714285351562  L 3.55238095117188 16.2428571464844  C 3.55238095117188 16.4904761953125  3.73809524414063 16.6761904882813  3.98571429296875 16.6761904882813  L 14.3238095117187 16.6761904882813  C 14.5714285605469 16.6761904882813  14.7571428535156 16.4904761953125  14.7571428535156 16.2428571464844  L 14.7571428535156 1.75714285351562  Z M 10.7333333417969 5.34761904882813  C 10.7333333417969 4.7904761953125  11.1047619023438 4.419047609375  11.6619047558594 4.419047609375  C 12.1571428535156 4.419047609375  12.5904761953125 4.85238095117188  12.5904761953125 5.34761904882813  C 12.5904761953125 5.84285714648438  12.1571428535156 6.27619048828125  11.6619047558594 6.27619048828125  C 11.1666666582031 6.27619048828125  10.7333333164063 5.84285714648438  10.7333333417969 5.34761904882813  Z M 5.780952390625 5.34761904882813  C 5.780952390625 4.7904761953125  6.21428573242188 4.419047609375  6.7095238046875 4.419047609375  C 7.20476190234375 4.419047609375  7.63809524414063 4.85238095117188  7.63809524414063 5.34761904882813  C 7.63809524414063 5.84285714648438  7.20476190234375 6.27619048828125  6.7095238046875 6.27619048828125  C 6.21428570703125 6.27619048828125  5.78095236523438 5.84285714648438  5.780952390625 5.34761904882813  Z M 8.50476190234376 7.080952390625  L 8.56666665820313 9.55714285351563  C 8.56666665820313 9.74285714648438  8.44285714648438 9.86666665820312  8.25714285351563 9.86666665820312  L 8.19523809765625 9.86666665820312  C 8.0095238046875 9.86666665820312  7.88571429296875 9.74285714648438  7.88571429296875 9.55714285351563  L 7.88571429296875 7.32857143945312  L 7.7 7.32857143945312  L 7.7 13.1476190488281  C 7.7 13.3333333417969  7.51428570703125 13.519047609375  7.32857143945313 13.519047609375  L 7.26666665820313 13.519047609375  C 7.08095236523438 13.519047609375  6.89523809765625 13.3333333164062  6.89523809765625 13.1476190488281  L 6.89523809765625 10.3619047558594  L 6.58571429296875 10.3619047558594  L 6.58571429296875 13.1476190488281  C 6.58571429296875 13.3333333417969  6.4 13.519047609375  6.21428570703125 13.519047609375  L 6.15238095117188 13.519047609375  C 5.96666665820313 13.519047609375  5.780952390625 13.3333333164062  5.780952390625 13.1476190488281  L 5.780952390625 7.32857143945312  L 5.59523809765625 7.32857143945312  L 5.59523809765625 9.55714285351562  C 5.59523809765625 9.74285714648438  5.4714285859375 9.86666665820312  5.28571429296875 9.86666665820312  L 5.22380951171875 9.86666665820312  C 5.03809521875 9.86666665820312  4.91428570703125 9.74285714648438  4.91428570703125 9.55714285351562  L 4.91428570703125 7.080952390625  C 4.91428570703125 6.7714285859375  5.16190475585938 6.58571429296875  5.4095238046875 6.58571429296875  L 8.0095238046875 6.58571429296875  C 8.319047609375 6.58571429296875  8.50476190234376 6.83333334179687  8.50476190234376 7.080952390625  Z M 13.3952380976563 7.080952390625  L 13.4571428535156 9.55714285351563  C 13.4571428535156 9.74285714648438  13.3333333417969 9.86666665820312  13.1476190488281 9.86666665820312  L 13.0857142929688 9.86666665820312  C 12.9 9.86666665820312  12.7761904882813 9.74285714648438  12.7761904882813 9.55714285351563  L 12.7761904882813 7.32857143945312  L 12.5904761953125 7.32857143945312  L 12.5904761953125 13.1476190488281  C 12.5904761953125 13.3333333417969  12.4047619023438 13.519047609375  12.219047609375 13.519047609375  L 12.1571428535156 13.519047609375  C 11.9714285605469 13.519047609375  11.7857142929688 13.3333333164062  11.7857142929688 13.1476190488281  L 11.7857142929688 10.3619047558594  L 11.4761904882813 10.3619047558594  L 11.4761904882813 13.1476190488281  C 11.4761904882813 13.3333333417969  11.2904761953125 13.519047609375  11.1047619023438 13.519047609375  L 11.0428571464844 13.519047609375  C 10.8571428535156 13.519047609375  10.6714285859375 13.3333333164062  10.6714285605469 13.1476190488281  L 10.6714285605469 7.32857143945312  L 10.4857142929688 7.32857143945312  L 10.4857142929688 9.55714285351562  C 10.4857142929688 9.74285714648438  10.36190478125 9.86666665820312  10.1761904882813 9.86666665820312  L 10.1142857070313 9.86666665820312  C 9.9285714140625 9.86666665820312  9.80476190234375 9.74285714648438  9.80476190234375 9.55714285351562  L 9.80476190234375 7.080952390625  C 9.80476190234375 6.7714285859375  10.0523809511719 6.58571429296875  10.3 6.58571429296875  L 12.9 6.58571429296875  C 13.2095238046875 6.58571429296875  13.3952380976563 6.83333334179687  13.3952380976563 7.080952390625  Z " fill-rule="nonzero" fill="#000000" stroke="none" transform="matrix(1 0 0 1 16 418 )" />
  </g>
</svg>