<?xml version="1.0" encoding="utf-8"?>
<svg version="1.1" xmlns:xlink="http://www.w3.org/1999/xlink" width="21px" height="12px" xmlns="http://www.w3.org/2000/svg">
  <g transform="matrix(1 0 0 1 -15 -521 )">
    <path d="M 20.475 0.880000000000004  C 20.475 0.617500000000004  20.2125 0.407500000000003  19.95 0.4075  L 17.4825 0.4075  C 17.22 0.4075  16.9575 0.67  16.9575 0.932500000000001  L 16.9575 0.985  L 15.225 1.09  C 14.9625 1.09  14.7525 1.3  14.7525 1.51  L 14.385 3.61  L 1.68 4.45  C 1.26 4.5025  0.8925 4.8175  0.8925 5.29  C 0.8925 5.4475  0.945 5.6575  1.05 5.815  L 4.5675 10.33  C 4.5675 10.33  4.8825 10.96  5.985 11.0125  C 5.985 10.855  5.9325 10.75  5.9325 10.5925  C 5.9325 9.07  7.1925 7.81  8.715 7.81  C 10.0275 7.81  11.13 8.755  11.445 9.9625  L 12.5475 9.7  L 13.0725 11.17  L 13.23 11.3275  L 13.335 11.3275  C 13.3875 11.3275  13.44 11.3275  13.4925 11.275  L 14.1225 10.9075  C 14.175 10.855  14.2275 10.8025  14.2275 10.6975  L 14.7 7.81  L 14.7 7.7575  L 14.9625 6.1825  L 15.6975 2.035  L 17.01 1.9825  C 17.115 2.14  17.2725 2.245  17.4825 2.245  L 19.95 2.245  C 20.2125 2.245  20.475 1.9825  20.475 1.72  L 20.475 0.880000000000004  Z M 13.965 9.3325  L 13.755 10.435  L 13.4925 10.5925  L 13.0725 9.5425  L 13.125 9.49  L 13.9125 9.3325  L 13.965 9.3325  Z " fill-rule="nonzero" fill="#333333" stroke="none" transform="matrix(1 0 0 1 15 521 )" />
  </g>
</svg>