<?xml version="1.0" encoding="utf-8"?>
<svg version="1.1" xmlns:xlink="http://www.w3.org/1999/xlink" width="18px" height="18px" xmlns="http://www.w3.org/2000/svg">
  <g transform="matrix(1 0 0 1 -2787 -82 )">
    <path d="M 0.991735541015625 4.51239669140625  L 0.991735541015625 1.04132230664062  L 4.46280992578125 1.04132230664062  L 4.46280992578125 0  L 0 0  L 0 4.51239669140625  L 0.991735541015625 4.51239669140625  Z M 16.8595041269531 13.4380165253906  L 16.8595041269531 16.9090909101563  L 13.3884297597656 16.9090909101563  L 13.3884297597656 17.9008264511719  L 17.8512396679687 17.9008264511719  L 17.8512396679687 13.4380165253906  L 16.8595041269531 13.4380165253906  Z M 17.8512396679687 0  L 16.8595041269531 0  L 13.3884297597656 0  L 13.3884297597656 1.04132230664062  L 16.8595041269531 1.04132230664062  L 16.8595041269531 4.51239669140625  L 17.8512396679687 4.51239669140625  L 17.8512396679687 0  Z M 0.991735541015625 16.9090909101563  L 0.991735541015625 13.4380165253906  L 0 13.4380165253906  L 0 17.9008264511719  L 4.46280992578125 17.9008264511719  L 4.46280992578125 16.9090909101563  L 0.991735541015625 16.9090909101563  Z M 3.47107438476562 14.925619828125  L 3.47107438476562 5.00826447070312  L 5.45454544921875 5.00826447070312  L 5.45454544921875 14.925619828125  L 3.47107438476562 14.925619828125  Z M 6.44628099023438 12.6942148828125  L 6.44628099023438 2.7768595078125  L 8.42975207226563 2.7768595078125  L 8.42975207226563 12.6942148828125  L 6.44628099023438 12.6942148828125  Z M 9.42148759570313 14.1818181855469  L 9.42148759570313 4.26446281054687  L 11.4049586777344 4.26446281054687  L 11.4049586777344 14.1818181855469  L 9.42148759570313 14.1818181855469  Z M 12.39669421875 15.1735537265625  L 12.39669421875 5.2561983515625  L 14.3801652832031 5.2561983515625  L 14.3801652832031 15.1735537265625  L 12.39669421875 15.1735537265625  Z " fill-rule="nonzero" fill="#ffffff" stroke="none" transform="matrix(1 0 0 1 2787 82 )" />
  </g>
</svg>