<?xml version="1.0" encoding="utf-8"?>
<svg version="1.1" xmlns:xlink="http://www.w3.org/1999/xlink" width="19px" height="19px" xmlns="http://www.w3.org/2000/svg">
  <g transform="matrix(1 0 0 1 -16 -184 )">
    <path d="M 4.607 3.2315  C 4.845 3.1265  5.097 3.074  5.363 3.074  C 5.629 3.074  5.8845 3.1265  6.1295 3.2315  C 6.3745 3.3365  6.5845 3.4765  6.7595 3.6515  C 6.9345 3.8265  7.0745 4.033  7.1795 4.271  C 7.2845 4.509  7.337 4.761  7.337 5.027  C 7.337 5.573  7.1445 6.035  6.7595 6.413  C 6.3745 6.791  5.909 6.98  5.363 6.98  C 5.097 6.98  4.845 6.931  4.607 6.833  C 4.369 6.735  4.1625 6.595  3.9875 6.413  C 3.8125 6.231  3.6725 6.0245  3.5675 5.7935  C 3.4625 5.5625  3.41 5.307  3.41 5.027  C 3.41 4.761  3.4625 4.509  3.5675 4.271  C 3.6725 4.033  3.8125 3.8265  3.9875 3.6515  C 4.1625 3.4765  4.369 3.3365  4.607 3.2315  Z M 1.583 0  L 16.955 0  C 17.669 0.00800000000000023  18.1765 0.2075  18.4775 0.6065  C 18.7785 1.0055  18.929 1.527  19 2.171  L 19 17.249  C 18.929 17.445  18.8835 17.6445  18.7925 17.8475  C 18.7015 18.0505  18.5755 18.229  18.4145 18.383  C 18.2535 18.537  18.068 18.663  17.858 18.761  C 17.648 18.859  17.417 18.908  17.165 19  L 1.688 19  C 1.254 18.908  0.8725 18.733  0.5435 18.383  C 0.2145 18.033  0.0500000000000003 17.613  0 17.123  L 0 1.751  C 0.0500000000000003 1.247  0.19 0.8305  0.47 0.5015  C 0.75 0.1725  1.121 0.00800000000000023  1.583 0  Z M 17.039 6.833  L 17.039 2.465  C 17.039 2.311  16.9795 2.1745  16.8605 2.0555  C 16.7415 1.9365  16.598 1.877  16.43 2  L 2.528 2  C 2.36 1.877  2.22 1.9365  2.108 2.0555  C 1.996 2.1745  1.94 2.311  1.94 2.465  L 1.94 2.486  L 1.94 10.004  C 2.08 10.172  2.2655 10.3645  2.4965 10.5815  C 2.7275 10.7985  3.0005 11.0015  3.3155 11.1905  C 3.6305 11.3795  3.9875 11.5405  4.3865 11.6735  C 4.7855 11.8065  5.23 11.873  5.72 11.873  C 6.476 11.873  7.141 11.7505  7.715 11.5055  C 8.289 11.2605  8.8315 10.9595  9.3425 10.6025  C 9.8535 10.2455  10.354 9.8535  10.844 9.4265  C 11.334 8.9995  11.8695 8.6005  12.4505 8.2295  C 13.0315 7.8585  13.693 7.5435  14.435 7.2845  C 15.177 7.0255  16.045 6.875  17.039 6.833  Z " fill-rule="nonzero" fill="#000000" stroke="none" transform="matrix(1 0 0 1 16 184 )" />
  </g>
</svg>