<?xml version="1.0" encoding="utf-8"?>
<svg version="1.1" xmlns:xlink="http://www.w3.org/1999/xlink" width="24px" height="24px" xmlns="http://www.w3.org/2000/svg">
  <g transform="matrix(1 0 0 1 -13 -315 )">
    <path d="M 22.6438356015625 9.73972601953125  C 24.4520547792969 6.45205478125  23.2465753164063 2.34246575  19.9863013710937 0.534246572265625  L 13.4383561542969 12.4520548027344  C 16.7260273925781 14.2328767207031  20.8356164238281 13.0273972578125  22.6438356015625 9.73972601953125  Z M 13.9315068632812 22.0684931464844  C 16.369863015625 24.3150684804687  20.1780821894531 24.150684921875  22.4246575234375 21.7123287695312  L 13.5205479335938 13.5479451933594  C 11.301369859375 16.0136986054688  11.4657534179688 19.8219178125  13.9315068632812 22.0684931464844  Z M 4.97260275390625 8.6986301484375  C 1.7945205546875 9.5753424609375  -0.123287662109374 12.8630136992188  0.698630130859375 16.0684931582031  L 12.3698630234375 12.9452054785156  C 11.4931507109375 9.73972601953125  8.20547947265625 7.8493150625  4.97260275390625 8.6986301484375  Z M 12.6712328808594 7.191780828125  C 12.6164383613281 7.21917808789062  12.5342465820313 7.21917808789062  12.4520548027344 7.21917808789063  C 12.260273984375 7.21917808789063  12.0684931660156 7.10958904882813  11.95890409375 6.91780823046875  C 11.8219177949219 6.6438356328125  11.9315068339844 6.315068515625  12.2054794648438 6.17808218359375  C 12.6438356210938 5.95890410546875  13.3287671484375 5.43835616992188  13.3287671152344 5.05479453320313  C 13.3287671152344 4.83561645507812  13.0547945175781 4.56164385742188  12.5890411015625 4.2876712265625  C 11.6027397167969 3.73972603125  11.0547945214844 3.05479450390625  10.9726027421875 2.31506849023437  C 10.863013703125 1.2739725859375  11.7123287558594 0.5068493125  11.739726015625 0.479452052734374  C 11.95890409375 0.287671234375  12.3150684707031 0.315068494140625  12.5068493222656 0.534246572265625  C 12.698630140625 0.753424650390625  12.698630140625 1.10958902734375  12.4520548027344 1.30136987890625  C 12.4246575429688 1.32876713867187  11.9863013867188 1.73972603515625  12.04109590625 2.20547945117188  C 12.0958904257813 2.69863012695313  12.6438356210938 3.08219176367188  13.1095890371094 3.35616439453125  C 13.9863013496094 3.8493150703125  14.4246575390625 4.42465755859375  14.3972602792969 5.10958905273437  C 14.3698630195313 6.315068515625  12.8356164394531 7.10958904882813  12.6712328808594 7.191780828125  Z M 8.83561644726563 7.191780828125  C 8.78082192773437 7.21917808789062  8.6986301484375 7.21917808789062  8.61643836914062 7.21917808789063  C 8.42465755078125 7.21917808789063  8.23287673242188 7.10958904882813  8.12328766015625 6.91780823046875  C 7.98630136132813 6.6438356328125  8.09589040039063 6.315068515625  8.36986299804687 6.17808218359375  C 8.80821915429687 5.95890410546875  9.49315068164062 5.43835616992188  9.49315068164062 5.05479453320313  C 9.49315068164062 4.83561645507812  9.21917808398437 4.56164385742188  8.75342466796875 4.2876712265625  C 7.76712328320312 3.73972603125  7.21917808789062 3.05479450390625  7.13698630859375 2.31506849023437  C 7.02739726953125 1.2739725859375  7.87671232226563 0.5068493125  7.90410958203125 0.479452052734374  C 8.12328766015625 0.287671234375  8.47945203710938 0.315068494140625  8.67123288867187 0.534246572265625  C 8.86301370703125 0.753424650390625  8.83561644726563 1.10958902734375  8.61643836914062 1.30136987890625  C 8.589041109375 1.30136987890625  8.150684953125 1.73972603515625  8.20547943945312 2.20547945117188  C 8.26027395898437 2.69863012695313  8.80821915429687 3.08219176367188  9.27397260351562 3.35616439453125  C 10.1506849160156 3.8493150703125  10.5890411054687 4.42465755859375  10.5616438457031 5.10958905273437  C 10.5342465859375 6.315068515625  9.00000000585938 7.10958904882813  8.83561644726563 7.191780828125  Z M 5.21917809179688 7.191780828125  C 5.16438357226563 7.21917808789062  5.08219179296875 7.21917808789062  5.00000001367187 7.21917808789063  C 4.8082191953125 7.21917808789063  4.61643837695313 7.10958904882813  4.5068493046875 6.91780823046875  C 4.36986300585938 6.6438356328125  4.47945204492188 6.315068515625  4.75342464257812 6.17808218359375  C 5.19178079882813 5.95890410546875  5.87671232617187 5.43835616992188  5.87671232617187 5.05479453320313  C 5.87671232617187 4.83561645507812  5.60273972851562 4.56164385742188  5.1369863125 4.2876712265625  C 4.15068492773437 3.73972603125  3.60273973242188 3.05479450390625  3.520547953125 2.31506849023437  C 3.4109589140625 1.2739725859375  4.26027396679688 0.5068493125  4.2876712265625 0.479452052734374  C 4.5068493046875 0.287671234375  4.86301368164063 0.315068494140625  5.05479453320313 0.534246572265625  C 5.2465753515625 0.753424650390625  5.2465753515625 1.10958902734375  5.00000001367188 1.30136987890625  C 4.97260275390625 1.32876713867187  4.53424659765625 1.73972603515625  4.58904108398438 2.20547945117188  C 4.64383560351563 2.69863012695313  5.19178079882813 3.08219176367188  5.65753424804688 3.35616439453125  C 6.53424656054688 3.8493150703125  6.97260275 4.42465755859375  6.94520549023438 5.10958905273437  C 6.91780823046875 6.315068515625  5.38356165039063 7.10958904882813  5.21917809179688 7.191780828125  Z " fill-rule="nonzero" fill="#333333" stroke="none" transform="matrix(1 0 0 1 13 315 )" />
  </g>
</svg>