<?xml version="1.0" encoding="utf-8"?>
<svg version="1.1" xmlns:xlink="http://www.w3.org/1999/xlink" width="14px" height="24px" xmlns="http://www.w3.org/2000/svg">
  <g transform="matrix(1 0 0 1 -18 -371 )">
    <path d="M 13.876 10.344  C 14.104 10.032  13.816 9.612  13.48 9.612  L 10.852 9.612  C 10.288 9.612  8.692 9.888  8.152 9.552  C 8.044 9.168  8.392 8.472  8.488 8.136  C 8.764 7.164  9.028 6.204  9.304 5.22  L 10.48 0.984  C 10.636 0.432  9.916 0.192  9.616 0.612  L 0.112 13.656  C -0.104 13.956  0.196 14.376  0.532 14.376  L 4.384 14.376  C 4.648 14.376  5.668 14.208  5.836 14.46  C 5.992 14.664  5.692 15.3  5.632 15.528  C 4.912 18.024  4.216 20.52  3.52 23.016  C 3.364 23.568  4.084 23.808  4.384 23.388  L 13.876 10.344  Z " fill-rule="nonzero" fill="#333333" stroke="none" transform="matrix(1 0 0 1 18 371 )" />
  </g>
</svg>