<?xml version="1.0" encoding="utf-8"?>
<svg version="1.1" xmlns:xlink="http://www.w3.org/1999/xlink" width="21px" height="21px" xmlns="http://www.w3.org/2000/svg">
  <g transform="matrix(1 0 0 1 -15 -584 )">
    <path d="M 21 0.536485852682926  C 20.9444293902439 0.255823475121951  20.698849817561 0.010243902439024  20.4181874604878 0  L 0.526241950243902 0  C 0.245579572682927 0.010243902439024  0 0.255823475121951  0 0.536485852682926  L 0 20.4635141473171  C 0 20.744176524878  0.245579572682927 20.989756097561  0.526241950243902 21  L 20.4532702448781 21  C 20.733932622439 20.989756097561  20.979512195122 20.744176524878  21 20.4635141473171  L 21 0.536485852682926  Z M 16.0328379160976 9.44751612  C 16.3485830780488 10.8859107717073  16.2433346839024 12.2892226185366  15.6820099492683 13.6574516604878  C 15.2960991980488 14.5696043619512  14.7698572478049 15.4115914741463  13.9980357248781 16.0781646234146  C 13.1560486126829 16.8149033414634  12.1737303219512 17.270979702439  11.0861636370732 17.4463936653659  C 8.41987112195122 17.8673872214634  5.89390978536585 16.1834129970732  5.08700545756097 13.9381140380488  C 4.38534952390244 12.0436430458537  4.66601190146341 10.219337622439  5.82374419609756 8.57044620292683  C 6.17457216292683 8.04420425268293  6.70081411317073 7.79862468  7.29722163219512 7.58812791219512  C 7.29722163219512 7.76354189560976  7.26213882731707 7.90387307414634  7.26213882731707 8.07928705756098  C 7.19197323804878 8.64061179219512  7.36738722146341 9.13177093756098  7.71821518829268 9.55276449365854  C 7.85854636682927 9.72817847707317  8.0339603502439 9.83342687121951  8.27953992292683 9.76326128195122  C 8.52511949560975 9.65801288780488  8.70053347902439 9.48259890439025  8.66545069463414 9.20193652682927  C 8.6303678897561 8.85110856  8.59528510536585 8.50028059317073  8.52511949560975 8.18453545170732  C 8.34970551219512 7.44779673365854  8.27953992292683 6.71105801560976  8.6303678897561 5.97431927707317  C 8.98119585658536 5.20249775414634  9.57760339609756 4.67625580390244  10.3143421141463 4.25526224780488  C 11.0159980478049 3.86935149658537  11.7527367658537 3.69393751317073  12.5245582887805 3.55360633463415  C 12.5947238780488 3.55360633463415  12.6648894673171 3.5185235297561  12.7350550565854 3.5185235297561  L 12.8052206458537 3.5185235297561  C 12.629806662439 3.76410310243903  12.4543926790244 3.97459989073171  12.3140615004878 4.18509665853659  C 11.6124055668293 5.20249775414634  11.577322782439 6.25498163414634  12.1386475170732 7.3425483395122  C 12.1737303219512 7.37763114439025  12.1737303219512 7.41271392878049  12.2088131268293 7.44779671317073  C 12.4543926995122 7.23729994536585  12.6999722721951 7.02680315707317  12.91046904 6.85138917365854  C 13.2963797912195 6.53564401170732  13.7173733473171 6.29006443902439  14.2085325131707 6.14973326048781  C 14.6996916585366 6.04448486634146  15.1908508039024 6.11465045560976  15.6820099492683 6.2198988497561  C 15.5767615551219 6.36023002829268  15.5065959658537 6.46547842243903  15.4013475717073 6.60580960097561  C 14.9803540156098 7.23729992487805  14.6295260487805 7.86879026926829  14.5242776751219 8.64061179219512  C 14.4541120858537 9.09668815317073  14.4190292809756 9.55276449365854  14.55936048 10.0088408546341  C 14.594443284878 10.1491720331707  14.6646088741463 10.2895032321951  14.7347744429268 10.4298344107317  C 15.1206851941463 9.83342687121951  15.4715131609756 9.27210213658537  15.8574239326829 8.64061179219512  C 15.9275895219512 8.9212741697561  15.9626723268293 9.20193652682927  16.0328379160976 9.44751612  Z " fill-rule="nonzero" fill="#333333" stroke="none" transform="matrix(1 0 0 1 15 584 )" />
  </g>
</svg>