<?xml version="1.0" encoding="utf-8"?>
<svg version="1.1" xmlns:xlink="http://www.w3.org/1999/xlink" width="5px" height="5px" xmlns="http://www.w3.org/2000/svg">
  <g transform="matrix(1 0 0 1 -23 -594 )">
    <path d="M 4.10356473268293 2.46463660195122  C 3.75273676585366 1.72789788390244  3.19141203121951 1.16657312878049  2.63008727609756 0.535082804878048  C 2.63008727609756 0.60524839414634  2.59500447121951 0.640331199024388  2.59500449170732 0.640331178536584  C 2.55992168682927 1.09640753951219  2.38450772390244 1.48231829073171  2.13892813073171 1.79806347317073  C 1.96351414731708 2.04364304585366  1.71793457463415 2.25413983414634  1.54252059121951 2.49971938634146  C 1.33202382341464 2.74529895902439  1.12152703512195 2.99087853170732  0.981195856585368 3.27154090926829  C 0.665450694634149 3.86794844878049  0.875947462439028 4.42927318341463  1.47235500195122 4.74501834536585  C 1.89334855804878 4.95551511317073  2.34942491902439 5.02568072292683  2.8055012595122 4.99059791804878  C 3.50715719317073 4.92043232878049  4.06848192780488 4.46435596780488  4.24389591121952 3.79778285951219  C 4.3842270897561 3.34170649853658  4.31406150048781 2.88563015804878  4.10356473268293 2.46463660195122  Z " fill-rule="nonzero" fill="#333333" stroke="none" transform="matrix(1 0 0 1 23 594 )" />
  </g>
</svg>