<?xml version="1.0" encoding="utf-8"?>
<svg version="1.1" xmlns:xlink="http://www.w3.org/1999/xlink" width="13px" height="13px" xmlns="http://www.w3.org/2000/svg">
  <g transform="matrix(1 0 0 1 -1138 -742 )">
    <path d="M 11.9055 11.8865  C 11.592 12.2095  11.2785 12.3045  11.041 12.067  L 6.5 7.526  L 1.9685 12.0575  C 1.731 12.295  1.4365 12.1905  1.123 11.877  C 0.8095 11.5635  0.6955 11.269  0.9425 11.0315  L 5.474 6.5  L 0.933 1.959  C 0.6575 1.674  0.819 1.3985  1.0945 1.1135  C 1.408 0.8  1.6645 0.638500000000001  1.959 0.9235  L 6.5 5.474  L 11.041 0.9425  C 11.307 0.676499999999999  11.573 0.8095  11.915 1.1515  C 12.2 1.4365  12.352 1.6835  12.067 1.9685  L 7.526 6.5  L 12.0575 11.0315  C 12.3425 11.3165  12.219 11.5635  11.9055 11.8865  Z " fill-rule="nonzero" fill="#ffffff" stroke="none" transform="matrix(1 0 0 1 1138 742 )" />
  </g>
</svg>