<?xml version="1.0" encoding="utf-8"?>
<svg version="1.1" xmlns:xlink="http://www.w3.org/1999/xlink" width="40px" height="40px" xmlns="http://www.w3.org/2000/svg">
  <defs>
    <filter x="236px" y="116px" width="40px" height="40px" filterUnits="userSpaceOnUse" id="filter14">
      <feOffset dx="1" dy="1" in="SourceAlpha" result="shadowOffsetInner" />
      <feGaussianBlur stdDeviation="2.5" in="shadowOffsetInner" result="shadowGaussian" />
      <feComposite in2="shadowGaussian" operator="atop" in="SourceAlpha" result="shadowComposite" />
      <feColorMatrix type="matrix" values="0 0 0 0 0  0 0 0 0 0  0 0 0 0 0  0 0 0 0.698039215686274 0  " in="shadowComposite" />
    </filter>
    <g id="widget15">
      <path d="M 255 120  C 263.4 120  270 126.6  270 135  C 270 143.4  263.4 150  255 150  C 246.6 150  240 143.4  240 135  C 240 126.6  246.6 120  255 120  Z " fill-rule="nonzero" fill="#009dd9" stroke="none" />
      <path d="M 255 120.5  C 263.12 120.5  269.5 126.88  269.5 135  C 269.5 143.12  263.12 149.5  255 149.5  C 246.88 149.5  240.5 143.12  240.5 135  C 240.5 126.88  246.88 120.5  255 120.5  Z " stroke-width="1" stroke="#ffffff" fill="none" />
    </g>
  </defs>
  <g transform="matrix(1 0 0 1 -236 -116 )">
    <use xlink:href="#widget15" filter="url(#filter14)" />
    <use xlink:href="#widget15" />
  </g>
</svg>