<?xml version="1.0" encoding="utf-8"?>
<svg version="1.1" xmlns:xlink="http://www.w3.org/1999/xlink" width="40px" height="40px" xmlns="http://www.w3.org/2000/svg">
  <defs>
    <filter x="393px" y="5px" width="40px" height="40px" filterUnits="userSpaceOnUse" id="filter24">
      <feOffset dx="1" dy="1" in="SourceAlpha" result="shadowOffsetInner" />
      <feGaussianBlur stdDeviation="2.5" in="shadowOffsetInner" result="shadowGaussian" />
      <feComposite in2="shadowGaussian" operator="atop" in="SourceAlpha" result="shadowComposite" />
      <feColorMatrix type="matrix" values="0 0 0 0 0  0 0 0 0 0  0 0 0 0 0  0 0 0 0.698039215686274 0  " in="shadowComposite" />
    </filter>
    <g id="widget25">
      <path d="M 412 9  C 420.4 9  427 15.6  427 24  C 427 32.4  420.4 39  412 39  C 403.6 39  397 32.4  397 24  C 397 15.6  403.6 9  412 9  Z " fill-rule="nonzero" fill="#009dd9" stroke="none" />
      <path d="M 412 9.5  C 420.12 9.5  426.5 15.88  426.5 24  C 426.5 32.12  420.12 38.5  412 38.5  C 403.88 38.5  397.5 32.12  397.5 24  C 397.5 15.88  403.88 9.5  412 9.5  Z " stroke-width="1" stroke="#ffffff" fill="none" />
    </g>
  </defs>
  <g transform="matrix(1 0 0 1 -393 -5 )">
    <use xlink:href="#widget25" filter="url(#filter24)" />
    <use xlink:href="#widget25" />
  </g>
</svg>