<?xml version="1.0" encoding="utf-8"?>
<svg version="1.1" xmlns:xlink="http://www.w3.org/1999/xlink" width="18px" height="18px" xmlns="http://www.w3.org/2000/svg">
  <g transform="matrix(1 0 0 1 -16 -1439 )">
    <path d="M 14.36376953125 7.23609375  L 17.51806640625 5.46912109375  L 9.09216796875 0.0504101562499999  L 0.481328125 5.6583203125  L 3.6991015625 7.36181640625  L 0.481328125 9.19103515625  L 3.6991015625 10.89453125  L 0.481328125 12.724375  L 9.101328125 17.9501953125  L 17.51806640625 12.53515625  L 14.36376953125 10.7687890625  L 17.51806640625 9.002421875  L 14.36376953125 7.23609375  Z M 9.0964453125 1.2381640625  L 15.4013671875 5.46912109375  L 9.08728515625 9.70556640625  L 2.63037109375 5.6259765625  L 9.0964453125 1.2381640625  Z M 4.78248046875 7.93494140625  L 9.101328125 10.8835546875  L 13.306640625 7.828125  L 15.4013671875 9.00244140625  L 9.08728515625 13.23828125  L 2.63037109375 9.15869140625  L 4.78248046875 7.93494140625  Z M 15.4013671875 12.53515625  L 9.08728515625 16.7722265625  L 2.63037109375 12.69140625  L 4.78248046875 11.46826171875  L 9.101328125 14.41626953125  L 13.306640625 11.36083984375  L 15.4013671875 12.53515625  Z " fill-rule="nonzero" fill="#000000" stroke="none" transform="matrix(1 0 0 1 16 1439 )" />
  </g>
</svg>