<?xml version="1.0" encoding="utf-8"?>
<svg version="1.1" xmlns:xlink="http://www.w3.org/1999/xlink" width="27px" height="11px" xmlns="http://www.w3.org/2000/svg">
  <g transform="matrix(1 0 0 1 -12 -1438 )">
    <path d="M 15.1275 9.8955  C 14.523 10.0815  13.872 10.19  13.221 10.19  C 12.539 10.19  11.857 10.0815  11.206 9.8645  L 2.433 6.6095  C 0.8985 6.0205  0.79 5.075  0.79 4.6875  C 0.821 4.1915  1.0845 3.742  1.4875 3.4475  C 1.9215 3.122  2.4175 2.8895  2.9445 2.781  L 11.702 0.58  C 12.663 0.363  13.655 0.363  14.616 0.58  L 23.978 2.7655  C 25.3265 3.0755  26.148 3.804  26.1945 4.703  C 26.1945 5.106  26.086 6.0825  24.474 6.6405  L 15.1275 9.8955  Z M 3.3165 4.1915  C 2.4795 4.4085  2.278 4.703  2.2625 4.765  C 2.2625 4.8115  2.4175 5.0285  2.9445 5.2145  L 11.733 8.4695  C 12.694 8.7795  13.717 8.7795  14.678 8.4695  L 24.009 5.2455  C 24.5825 5.044  24.7375 4.827  24.7375 4.7805  C 24.7375 4.734  24.505 4.4085  23.6525 4.207  L 14.275 1.9905  C 13.5465 1.82  12.787 1.82  12.043 1.9905  L 3.3165 4.1915  Z " fill-rule="nonzero" fill="#000000" stroke="none" transform="matrix(1 0 0 1 12 1438 )" />
  </g>
</svg>