<?xml version="1.0" encoding="utf-8"?>
<svg version="1.1" xmlns:xlink="http://www.w3.org/1999/xlink" width="28px" height="10px" xmlns="http://www.w3.org/2000/svg">
  <g transform="matrix(1 0 0 1 -12 -1445 )">
    <path d="M 6.215 1.671  L 3.766 0.756499999999999  L 2.9445 0.9735  C 2.4175 1.082  1.9215 1.3145  1.4875 1.64  C 1.0845 1.9345  0.8365 2.384  0.79 2.88  C 0.7745 3.2675  0.883 4.213  2.433 4.7865  L 11.206 8.0415  C 12.477 8.4755  13.8565 8.4755  15.1275 8.0725  L 24.474 4.8175  C 26.086 4.2595  26.21 3.283  26.1945 2.88  C 26.148 1.981  25.3265 1.268  23.978 0.942499999999999  L 23.172 0.756499999999999  L 20.5835 1.6555  L 23.6525 2.3685  C 24.4895 2.57  24.722 2.88  24.7375 2.942  C 24.753 3.004  24.567 3.221  24.009 3.407  L 14.678 6.662  C 13.717 6.972  12.694 6.972  11.733 6.662  L 2.9445 3.407  C 2.433 3.221  2.278 2.9885  2.2625 2.9575  C 2.247 2.9265  2.4795 2.5855  3.3165 2.384  L 6.215 1.671  Z " fill-rule="nonzero" fill="#000000" stroke="none" transform="matrix(1 0 0 1 12 1445 )" />
  </g>
</svg>