<?xml version="1.0" encoding="utf-8"?>
<svg version="1.1" xmlns:xlink="http://www.w3.org/1999/xlink" width="28px" height="10px" xmlns="http://www.w3.org/2000/svg">
  <g transform="matrix(1 0 0 1 -12 -1450 )">
    <path d="M 6.1995 1.8635  L 3.766 0.98  L 2.929 1.1815  C 2.402 1.3055  1.9215 1.538  1.4875 1.8635  C 1.0845 2.158  0.8365 2.6075  0.79 3.088  C 0.7745 3.4755  0.883 4.421  2.433 4.9945  L 11.206 8.2495  C 11.857 8.482  12.539 8.5905  13.221 8.575  C 13.872 8.575  14.523 8.482  15.143 8.26499999999999  L 24.4895 5.00999999999999  C 26.1015 4.45199999999999  26.2255 3.4755  26.21 3.07249999999999  C 26.1635 2.17349999999999  25.342 1.46049999999999  23.9935 1.13499999999999  L 23.1875 0.948999999999995  L 20.599 1.8325  L 23.668 2.54549999999999  C 24.505 2.74699999999999  24.7375 3.057  24.753 3.11899999999999  C 24.7685 3.18099999999999  24.5825 3.39799999999999  24.0245 3.58399999999999  L 14.6935 6.87  C 13.7325 7.18  12.7095 7.18  11.7485 6.87  L 2.9445 3.615  C 2.433 3.429  2.278 3.1965  2.2625 3.1655  C 2.247 3.1345  2.4795 2.809  3.3165 2.6075  L 6.1995 1.8635  Z " fill-rule="nonzero" fill="#000000" stroke="none" transform="matrix(1 0 0 1 12 1450 )" />
  </g>
</svg>