<?xml version="1.0" encoding="utf-8"?>
<svg version="1.1" xmlns:xlink="http://www.w3.org/1999/xlink" width="20px" height="20px" preserveAspectRatio="xMinYMid meet" viewBox="296 1804  20 18" xmlns="http://www.w3.org/2000/svg">
  <path d="M 113 1485  L 285 1485  A 5 5 0 0 1 290 1490 L 290 1808  A 5 5 0 0 0 295 1813 L 305 1813  " stroke-width="2" stroke="#0099cc" fill="none" />
  <path d="M 114.5 1481.5  A 3.5 3.5 0 0 0 111 1485 A 3.5 3.5 0 0 0 114.5 1488.5 A 3.5 3.5 0 0 0 118 1485 A 3.5 3.5 0 0 0 114.5 1481.5 Z M 304 1820.6  L 311 1813  L 304 1805.4  L 304 1820.6  Z " fill-rule="nonzero" fill="#0099cc" stroke="none" />
</svg>