<?xml version="1.0" encoding="utf-8"?>
<svg version="1.1" xmlns:xlink="http://www.w3.org/1999/xlink" width="12px" height="12px" xmlns="http://www.w3.org/2000/svg">
  <g transform="matrix(1 0 0 1 -1179 -247 )">
    <path d="M 5 9.296875  C 5.13541666666667 9.296875  5.25260416666667 9.24739583333333  5.3515625 9.1484375  L 10.1484375 4.3515625  C 10.2473958333333 4.25260416666667  10.296875 4.13541666666667  10.296875 4  C 10.296875 3.86458333333333  10.2473958333333 3.74739583333333  10.1484375 3.6484375  L 9.3515625 2.8515625  C 9.25260416666667 2.75260416666667  9.13541666666667 2.703125  9 2.703125  C 8.86458333333333 2.703125  8.74739583333333 2.75260416666667  8.6484375 2.8515625  L 5 6.5  L 3.3515625 4.8515625  C 3.25260416666667 4.75260416666667  3.13541666666667 4.703125  3 4.703125  C 2.86458333333333 4.703125  2.74739583333333 4.75260416666667  2.6484375 4.8515625  L 1.8515625 5.6484375  C 1.75260416666667 5.74739583333333  1.703125 5.86458333333333  1.703125 6  C 1.703125 6.13541666666667  1.75260416666667 6.25260416666667  1.8515625 6.3515625  L 4.6484375 9.1484375  C 4.74739583333333 9.24739583333333  4.86458333333333 9.296875  5 9.296875  Z M 11.33984375 0.66015625  C 11.7799479166667 1.10026041666667  12 1.63020833333333  12 2.25  L 12 9.75  C 12 10.3697916666667  11.7799479166667 10.8997395833333  11.33984375 11.33984375  C 10.8997395833333 11.7799479166667  10.3697916666667 12  9.75 12  L 2.25 12  C 1.63020833333333 12  1.10026041666667 11.7799479166667  0.66015625 11.33984375  C 0.220052083333333 10.8997395833333  0 10.3697916666667  0 9.75  L 0 2.25  C 0 1.63020833333333  0.220052083333333 1.10026041666667  0.66015625 0.66015625  C 1.10026041666667 0.220052083333333  1.63020833333333 0  2.25 0  L 9.75 0  C 10.3697916666667 0  10.8997395833333 0.220052083333333  11.33984375 0.66015625  Z " fill-rule="nonzero" fill="#082133" stroke="none" transform="matrix(1 0 0 1 1179 247 )" />
  </g>
</svg>