<?xml version="1.0" encoding="utf-8"?>
<svg version="1.1" xmlns:xlink="http://www.w3.org/1999/xlink" width="9px" height="11px" xmlns="http://www.w3.org/2000/svg">
  <g transform="matrix(1 0 0 1 -1221 -176 )">
    <path d="M 7.14814815332031 3.27314815332031  L 7.14814815332031 4.1759259296875  L 6.18518518847656 4.1759259296875  L 6.18518518847656 3.27314815332031  C 6.18518518847656 2.34388889453125  5.42925925878906 1.58796296484375  4.5 1.58796296484375  C 3.57074074121094 1.58796296484375  2.81481481152344 2.34388889453125  2.81481481152344 3.27314815332031  L 2.81481481152344 4.1759259296875  L 1.85185184667969 4.1759259296875  L 1.85185184667969 3.27314815332031  C 1.85185184667969 2.5677777890625  2.1275 1.90333334179688  2.62944444726562 1.40259258789063  C 3.13018518847656 0.900648153320313  3.79462963574219 0.625  4.5 0.625  C 5.20537036425781 0.625  5.86981481152344 0.900648153320313  6.37055555273438 1.40259258789063  C 6.87129629394531 1.90453702246094  7.14814815332031 2.56777777636719  7.14814815332031 3.27314815332031  Z M 8.35185184667969 4.93425925878906  C 8.35185184667969 4.61648148242187  8.09185184667969 4.35648148242188  7.7740740703125 4.35648148242188  L 1.2259259296875 4.35648148242188  C 0.908148153320312 4.35648148242188  0.648148153320312 4.61648148242188  0.648148153320312 4.93425925878906  L 0.648148153320312 9.79722222363281  C 0.648148153320312 10.115  0.908148153320312 10.375  1.2259259296875 10.375  L 7.7740740703125 10.375  C 8.09185184667969 10.375  8.35185184667969 10.115  8.35185184667969 9.79722222363281  L 8.35185184667969 4.93425925878906  Z M 5.10185184667969 6.93240741210937  C 5.10185184667969 7.12981482421875  5.00675925878906 7.304351859375  4.86111110546875 7.41388889453125  L 4.86111110546875 8.01574074121094  C 4.86111110546875 8.21435184667969  4.69861110546875 8.37685184667969  4.5 8.37685184667969  C 4.30138889453125 8.37685184667969  4.13888889453125 8.21435184667969  4.13888889453125 8.01574074121094  L 4.13888889453125 7.41388889453125  C 3.99324074121094 7.304351859375  3.89814815332031 7.12981482421875  3.89814815332031 6.93240741210937  C 3.89814815332031 6.60018518847656  4.1677777890625 6.33055556542969  4.5 6.33055555273437  C 4.8322222109375 6.33055554003906  5.10185184667969 6.60018518847656  5.10185184667969 6.93240741210937  Z " fill-rule="nonzero" fill="#7f7f7f" stroke="none" transform="matrix(1 0 0 1 1221 176 )" />
  </g>
</svg>